<svg width="97" height="25" viewBox="0 0 97 25" fill="none" xmlns="http://www.w3.org/2000/svg">
<path d="M10 3C10.8909 8.10865 14.8913 12.1091 20 13C14.8913 13.8909 10.8909 17.8913 10 23C9.1091 17.8913 5.10865 13.8909 0 13C5.10865 12.1091 9.1091 8.10865 10 3Z" fill="#12D800"/>
<path d="M29.44 21V6.1H39.38V8.5H32.16V12.62H38.48V15.02H32.16V21H29.44ZM46.0244 21.24C44.9577 21.24 43.9844 20.9933 43.1044 20.5C42.2377 20.0067 41.5444 19.3333 41.0244 18.48C40.5177 17.6267 40.2644 16.6533 40.2644 15.56C40.2644 14.4667 40.5177 13.4933 41.0244 12.64C41.5444 11.7867 42.2377 11.1133 43.1044 10.62C43.971 10.1267 44.9444 9.88 46.0244 9.88C47.091 9.88 48.0577 10.1267 48.9244 10.62C49.791 11.1133 50.4777 11.7867 50.9844 12.64C51.5044 13.48 51.7644 14.4533 51.7644 15.56C51.7644 16.6533 51.5044 17.6267 50.9844 18.48C50.4644 19.3333 49.771 20.0067 48.9044 20.5C48.0377 20.9933 47.0777 21.24 46.0244 21.24ZM46.0244 18.84C46.611 18.84 47.1244 18.7 47.5644 18.42C48.0177 18.14 48.371 17.7533 48.6244 17.26C48.891 16.7533 49.0244 16.1867 49.0244 15.56C49.0244 14.92 48.891 14.36 48.6244 13.88C48.371 13.3867 48.0177 13 47.5644 12.72C47.1244 12.4267 46.611 12.28 46.0244 12.28C45.4244 12.28 44.8977 12.4267 44.4444 12.72C43.991 13 43.631 13.3867 43.3644 13.88C43.111 14.36 42.9844 14.92 42.9844 15.56C42.9844 16.1867 43.111 16.7533 43.3644 17.26C43.631 17.7533 43.991 18.14 44.4444 18.42C44.8977 18.7 45.4244 18.84 46.0244 18.84ZM59.0713 21.24C58.0046 21.24 57.0313 20.9933 56.1513 20.5C55.2846 20.0067 54.5913 19.3333 54.0713 18.48C53.5646 17.6267 53.3113 16.6533 53.3113 15.56C53.3113 14.4667 53.5646 13.4933 54.0713 12.64C54.5913 11.7867 55.2846 11.1133 56.1513 10.62C57.0179 10.1267 57.9913 9.88 59.0713 9.88C60.1379 9.88 61.1046 10.1267 61.9713 10.62C62.8379 11.1133 63.5246 11.7867 64.0313 12.64C64.5513 13.48 64.8113 14.4533 64.8113 15.56C64.8113 16.6533 64.5513 17.6267 64.0313 18.48C63.5113 19.3333 62.8179 20.0067 61.9513 20.5C61.0846 20.9933 60.1246 21.24 59.0713 21.24ZM59.0713 18.84C59.6579 18.84 60.1713 18.7 60.6113 18.42C61.0646 18.14 61.4179 17.7533 61.6713 17.26C61.9379 16.7533 62.0713 16.1867 62.0713 15.56C62.0713 14.92 61.9379 14.36 61.6713 13.88C61.4179 13.3867 61.0646 13 60.6113 12.72C60.1713 12.4267 59.6579 12.28 59.0713 12.28C58.4713 12.28 57.9446 12.4267 57.4913 12.72C57.0379 13 56.6779 13.3867 56.4113 13.88C56.1579 14.36 56.0313 14.92 56.0313 15.56C56.0313 16.1867 56.1579 16.7533 56.4113 17.26C56.6779 17.7533 57.0379 18.14 57.4913 18.42C57.9446 18.7 58.4713 18.84 59.0713 18.84ZM71.8581 21.24C70.8048 21.24 69.8648 20.9933 69.0381 20.5C68.2115 19.9933 67.5581 19.3067 67.0781 18.44C66.5981 17.5733 66.3581 16.6133 66.3581 15.56C66.3581 14.4933 66.5981 13.5333 67.0781 12.68C67.5581 11.8267 68.2115 11.1467 69.0381 10.64C69.8781 10.1333 70.8115 9.88 71.8381 9.88C72.6648 9.88 73.3981 10.0467 74.0381 10.38C74.6915 10.7 75.2048 11.1533 75.5781 11.74L75.1781 12.28V5.86H77.7981V21H75.3181V18.9L75.5981 19.42C75.2248 20.0067 74.7048 20.46 74.0381 20.78C73.3715 21.0867 72.6448 21.24 71.8581 21.24ZM72.1381 18.84C72.7381 18.84 73.2648 18.7 73.7181 18.42C74.1715 18.14 74.5248 17.7533 74.7781 17.26C75.0448 16.7667 75.1781 16.2 75.1781 15.56C75.1781 14.9333 75.0448 14.3733 74.7781 13.88C74.5248 13.3733 74.1715 12.98 73.7181 12.7C73.2648 12.42 72.7381 12.28 72.1381 12.28C71.5515 12.28 71.0248 12.4267 70.5581 12.72C70.0915 13 69.7248 13.3867 69.4581 13.88C69.2048 14.36 69.0781 14.92 69.0781 15.56C69.0781 16.2 69.2048 16.7667 69.4581 17.26C69.7248 17.7533 70.0915 18.14 70.5581 18.42C71.0248 18.7 71.5515 18.84 72.1381 18.84ZM80.2356 21V10.12H82.8556V21H80.2356ZM80.2356 8.9V6.1H82.8556V8.9H80.2356ZM90.4347 21.24C89.3147 21.24 88.3347 20.9867 87.4947 20.48C86.6547 19.9733 86.0014 19.2867 85.5347 18.42C85.068 17.5533 84.8347 16.5933 84.8347 15.54C84.8347 14.4467 85.068 13.48 85.5347 12.64C86.0147 11.7867 86.6614 11.1133 87.4747 10.62C88.3014 10.1267 89.2214 9.88 90.2347 9.88C91.088 9.88 91.8347 10.02 92.4747 10.3C93.128 10.58 93.6814 10.9667 94.1347 11.46C94.588 11.9533 94.9347 12.52 95.1747 13.16C95.4147 13.7867 95.5347 14.4667 95.5347 15.2C95.5347 15.3867 95.5214 15.58 95.4947 15.78C95.4814 15.98 95.448 16.1533 95.3947 16.3H86.9947V14.3H93.9147L92.6747 15.24C92.7947 14.6267 92.7614 14.08 92.5747 13.6C92.4014 13.12 92.108 12.74 91.6947 12.46C91.2947 12.18 90.808 12.04 90.2347 12.04C89.688 12.04 89.2014 12.18 88.7747 12.46C88.348 12.7267 88.0214 13.1267 87.7947 13.66C87.5814 14.18 87.5014 14.8133 87.5547 15.56C87.5014 16.2267 87.588 16.82 87.8147 17.34C88.0547 17.8467 88.4014 18.24 88.8547 18.52C89.3214 18.8 89.8547 18.94 90.4547 18.94C91.0547 18.94 91.5614 18.8133 91.9747 18.56C92.4014 18.3067 92.7347 17.9667 92.9747 17.54L95.0947 18.58C94.8814 19.1 94.548 19.56 94.0947 19.96C93.6414 20.36 93.1014 20.6733 92.4747 20.9C91.8614 21.1267 91.1814 21.24 90.4347 21.24Z" fill="black"/>
</svg>
